<?xml version="1.0" encoding="UTF-8"?>
<svg id="Layer_2" data-name="Layer 2" xmlns="http://www.w3.org/2000/svg" viewBox="0 0 775.92 775.92">
  <defs>
    <style>
      .cls-1 {
        fill: #050002;
        opacity: 0;
      }

      .cls-2 {
        fill: #ce4a4a;
      }

      .cls-3 {
        fill: #e7b339;
      }
    </style>
  </defs>
  <g id="Layer_1-2" data-name="Layer 1">
    <g>
      <rect class="cls-1" width="775.92" height="775.92"/>
      <g>
        <path class="cls-3" d="M572.48,129.17l-151.7-87.58-22.98-13.26c-6.09-3.52-13.59-3.52-19.69,0l-22.98,13.26-158.04,91.24c-6.09,3.52-9.84,10.02-9.84,17.05v209.02c0,7.04,3.75,13.54,9.84,17.05l181.02,104.51c6.09,3.52,13.59,3.52,19.69,0l181.02-104.51c6.09-3.52,9.84-10.02,9.84-17.05v-201.71c0-11.56-6.17-22.24-16.18-28.03ZM387.96,356.35c-56.31,0-101.95-45.65-101.95-101.96s45.64-101.95,101.95-101.95,101.95,45.64,101.95,101.95-45.64,101.96-101.95,101.96Z"/>
        <path class="cls-2" d="M375.2,750.01c-196.81-6.73-354.29-168.39-354.29-366.84,0-90.46,32.72-173.26,86.97-237.24,8.55-10.09,25.02-4.12,25.02,9.1v238.45c0,5.06,2.7,9.74,7.08,12.27l240.91,139.09c4.38,2.53,9.78,2.53,14.16,0l240.91-139.09c4.38-2.53,7.08-7.21,7.08-12.27v-238.43c0-13.16,16.42-19.24,24.94-9.2,51.08,60.2,83.09,137.09,86.7,221.34,9.14,213.23-166.18,390.11-379.48,382.82Z"/>
      </g>
    </g>
  </g>
</svg>