<?xml version="1.0" encoding="UTF-8"?>
<svg id="Layer_2" data-name="Layer 2" xmlns="http://www.w3.org/2000/svg" viewBox="0 0 777.47 767.33">
  <defs>
    <style>
      .cls-1 {
        fill: #ce4a4a;
      }

      .cls-2 {
        fill: #e7b339;
      }
    </style>
  </defs>
  <g id="Layer_1-2" data-name="Layer 1">
    <g>
      <path class="cls-2" d="M584.16,109.59L423.5,16.84l-24.33-14.05c-6.45-3.73-14.4-3.73-20.85,0l-24.34,14.05-167.37,96.63c-6.45,3.73-10.42,10.61-10.42,18.06v221.37c0,7.45,3.97,14.33,10.42,18.06l191.72,110.68c6.45,3.73,14.4,3.73,20.85,0l191.71-110.68c6.45-3.73,10.42-10.61,10.42-18.06v-213.62c0-12.25-6.53-23.56-17.13-29.69ZM388.74,350.19c-59.63,0-107.97-48.35-107.97-107.98s48.34-107.97,107.97-107.97,107.97,48.34,107.97,107.97-48.34,107.98-107.97,107.98Z"/>
      <path class="cls-1" d="M375.22,767.1C166.78,759.97,0,588.76,0,378.6c0-95.8,34.65-183.5,92.1-251.25,9.06-10.68,26.5-4.36,26.5,9.64v252.53c0,5.36,2.86,10.31,7.5,12.99l255.14,147.3c4.64,2.68,10.36,2.68,15,0l255.14-147.3c4.64-2.68,7.5-7.63,7.5-12.99v-252.51c0-13.94,17.39-20.38,26.41-9.75,54.09,63.75,87.99,145.18,91.82,234.41,9.68,225.83-175.99,413.15-401.89,405.43Z"/>
    </g>
  </g>
</svg>