<?xml version="1.0" encoding="UTF-8"?>
<svg id="Layer_2" data-name="Layer 2" xmlns="http://www.w3.org/2000/svg" viewBox="0 0 885.46 1118.77">
  <defs>
    <style>
      .cls-1 {
        fill: #fff;
      }

      .cls-2 {
        fill: #e7b339;
      }
    </style>
  </defs>
  <g id="Branding">
    <g>
      <g>
        <path class="cls-1" d="M885.46,336.38v685.12c0,53.72-43.55,97.27-97.27,97.27H97.27c-53.72,0-97.27-43.55-97.27-97.27V97.27C0,43.55,43.55,0,97.27,0h431.29c14.54,0,356.9,336.38,356.9,336.38Z"/>
        <circle class="cls-2" cx="309.56" cy="230.18" r="121.38"/>
        <path class="cls-2" d="M478.21,580.27c13.16,0,23.36-11.56,21.69-24.61-12.08-94.36-92.69-167.29-190.33-167.29s-178.25,72.93-190.33,167.29c-1.67,13.06,8.52,24.61,21.69,24.61h337.29Z"/>
        <rect class="cls-2" x="117.66" y="703.67" width="671.8" height="92.61" rx="35.22" ry="35.22"/>
        <rect class="cls-2" x="117.66" y="843.63" width="500.83" height="92.61" rx="35.22" ry="35.22"/>
      </g>
      <path class="cls-2" d="M885.46,336.38h-223.4c-73.73,0-133.5-59.77-133.5-133.5V0c14.54,0,356.9,336.38,356.9,336.38Z"/>
    </g>
  </g>
</svg>