<?xml version="1.0" encoding="UTF-8"?>
<svg id="Layer_2" data-name="Layer 2" xmlns="http://www.w3.org/2000/svg" viewBox="0 0 885.46 1118.77">
  <defs>
    <style>
      .cls-1 {
        fill: #ce4a4a;
      }

      .cls-2 {
        fill: #fff;
      }

      .cls-3 {
        fill: #e7b339;
      }
    </style>
  </defs>
  <g id="Layer_1-2" data-name="Layer 1">
    <g>
      <g>
        <g>
          <path class="cls-1" d="M885.46,336.38v685.12c0,53.72-43.55,97.27-97.27,97.27H97.27c-53.72,0-97.27-43.55-97.27-97.27V97.27C0,43.55,43.55,0,97.27,0h431.29c14.54,0,356.9,336.38,356.9,336.38Z"/>
          <path class="cls-3" d="M152.88,703.67h601.35c19.44,0,35.22,15.78,35.22,35.22v22.16c0,19.44-15.78,35.22-35.22,35.22H152.88c-19.44,0-35.22-15.78-35.22-35.22v-22.16c0-19.44,15.78-35.22,35.22-35.22Z"/>
          <path class="cls-3" d="M152.88,843.63h430.39c19.44,0,35.22,15.78,35.22,35.22v22.16c0,19.44-15.78,35.22-35.22,35.22H152.88c-19.44,0-35.22-15.78-35.22-35.22v-22.16c0-19.44,15.78-35.22,35.22-35.22Z"/>
        </g>
        <path class="cls-3" d="M885.46,336.38h-223.4c-73.73,0-133.5-59.77-133.5-133.5V0c14.54,0,356.9,336.38,356.9,336.38Z"/>
      </g>
      <circle class="cls-2" cx="275.02" cy="318.55" r="100.26"/>
      <path class="cls-2" d="M414.32,607.72c10.87,0,19.29-9.54,17.91-20.33-9.98-77.94-76.56-138.18-157.21-138.18s-147.23,60.24-157.21,138.18c-1.38,10.79,7.04,20.33,17.91,20.33h278.6Z"/>
    </g>
  </g>
</svg>