<?xml version="1.0" encoding="UTF-8"?>
<svg id="Layer_2" data-name="Layer 2" xmlns="http://www.w3.org/2000/svg" viewBox="0 0 885.46 1118.77">
  <defs>
    <style>
      .cls-1 {
        fill: #e7b339;
      }
    </style>
  </defs>
  <g id="Branding">
    <g>
      <g>
        <g>
          <path d="M885.46,336.38v685.12c0,53.72-43.55,97.27-97.27,97.27H97.27c-53.72,0-97.27-43.55-97.27-97.27V97.27C0,43.55,43.55,0,97.27,0h431.29c14.54,0,356.9,336.38,356.9,336.38Z"/>
          <rect class="cls-1" x="117.66" y="703.67" width="671.8" height="92.61" rx="35.22" ry="35.22"/>
          <rect class="cls-1" x="117.66" y="843.63" width="500.83" height="92.61" rx="35.22" ry="35.22"/>
        </g>
        <path class="cls-1" d="M885.46,336.38h-223.4c-73.73,0-133.5-59.77-133.5-133.5V0c14.54,0,356.9,336.38,356.9,336.38Z"/>
      </g>
      <path class="cls-1" d="M117.66,203.15l9.99-14.98h70.46l87.11,310.7h8.88l87.66-310.7h69.91l9.99,14.98-108.74,367.84h-126.5L117.66,203.15Z"/>
    </g>
  </g>
</svg>